<?xml version="1.0" standalone="no"?>
<!DOCTYPE svg PUBLIC "-//W3C//DTD SVG 20010904//EN"
 "http://www.w3.org/TR/2001/REC-SVG-20010904/DTD/svg10.dtd">
<svg version="1.0" xmlns="http://www.w3.org/2000/svg"
 width="640.000000pt" height="640.000000pt" viewBox="0 0 640.000000 640.000000"
 preserveAspectRatio="xMidYMid meet">
<metadata>
Created by potrace 1.11, written by Peter Selinger 2001-2013
</metadata>
<g transform="translate(0.000000,640.000000) scale(0.100000,-0.100000)"
fill="#000000" stroke="none">
<path d="M0 3200 l0 -3200 3200 0 3200 0 0 3200 0 3200 -3200 0 -3200 0 0
-3200z m5700 0 l0 -2500 -2500 0 -2500 0 0 2500 0 2500 2500 0 2500 0 0 -2500z"/>
<path d="M810 4400 l0 -1200 2390 0 2390 0 0 1200 0 1200 -2390 0 -2390 0 0
-1200z m1075 537 c28 -9 59 -22 69 -30 17 -13 17 -15 -8 -65 -15 -29 -30 -52
-35 -52 -4 0 -34 10 -67 22 -46 17 -82 22 -169 22 -99 1 -116 -2 -166 -25
-160 -75 -241 -267 -209 -493 24 -170 108 -284 238 -323 70 -21 198 -20 300 1
40 9 78 16 83 16 5 0 9 -27 9 -59 l0 -59 -68 -16 c-237 -54 -444 -15 -565 106
-97 97 -147 243 -147 426 1 278 132 473 361 537 71 20 302 15 374 -8z m397
-214 l3 -228 278 -3 277 -2 0 230 0 230 65 0 65 0 0 -540 0 -540 -65 0 -65 0
0 250 0 250 -280 0 -280 0 0 -250 0 -250 -65 0 -65 0 0 540 0 540 65 0 65 0 2
-227z m1578 167 l0 -60 -235 0 -235 0 0 -170 0 -170 225 0 226 0 -3 -57 -3
-58 -222 -3 -223 -2 0 -190 0 -190 235 0 235 0 0 -60 0 -60 -300 0 -300 0 0
540 0 540 300 0 300 0 0 -60z m343 -317 c52 -208 101 -405 108 -438 l12 -60
23 100 c12 55 67 251 122 435 l99 335 71 3 70 3 16 -48 c69 -214 203 -666 221
-742 l21 -94 13 68 c6 37 55 234 107 436 51 203 94 371 94 374 0 3 32 5 70 5
49 0 70 -4 70 -12 0 -7 -63 -248 -140 -536 -77 -288 -140 -526 -140 -528 0 -2
-31 -4 -68 -4 l-69 0 -127 428 c-70 235 -130 434 -133 442 -2 8 -15 -23 -27
-70 -12 -47 -69 -246 -126 -442 l-105 -358 -67 0 -67 0 -15 53 c-51 182 -266
999 -266 1012 0 12 14 15 68 15 l69 0 96 -377z"/>
<path d="M3076 2442 c-10 -16 -416 -1054 -416 -1063 0 -6 27 -9 62 -7 l62 3
65 168 64 167 216 -2 215 -3 66 -167 65 -168 64 0 c58 0 63 2 58 20 -3 10 -97
253 -208 540 l-204 520 -52 0 c-28 0 -54 -4 -57 -8z m64 -169 c1 -10 36 -112
79 -228 l79 -210 -84 -3 c-46 -1 -122 -1 -167 0 l-84 3 73 195 c41 107 76 210
80 228 7 34 24 44 24 15z"/>
<path d="M1840 2385 l0 -55 170 0 170 0 0 -480 0 -480 60 0 60 0 0 480 0 480
170 0 170 0 0 55 0 55 -400 0 -400 0 0 -55z"/>
<path d="M3750 1905 l0 -537 243 4 c269 5 313 13 389 71 69 53 101 114 106
206 8 133 -29 203 -132 252 -33 16 -72 29 -86 30 -28 0 -25 2 49 30 107 40
158 160 128 302 -12 56 -76 121 -145 149 -52 20 -77 22 -304 26 l-248 4 0
-537z m387 425 c135 -17 188 -66 187 -171 -1 -70 -29 -119 -82 -145 -31 -16
-66 -20 -204 -22 l-168 -4 0 169 c0 94 3 173 7 176 9 10 176 8 260 -3z m54
-460 c115 -22 177 -100 166 -208 -8 -72 -42 -123 -104 -153 -43 -22 -64 -24
-215 -27 l-168 -4 0 194 c0 107 3 198 7 201 10 11 254 8 314 -3z"/>
</g>
</svg>
